<?xml version="1.0" encoding="UTF-8" standalone="no"?>
<!-- Created with Inkscape (http://www.inkscape.org/) -->

<svg
   width="210mm"
   height="297mm"
   viewBox="0 0 210 297"
   version="1.1"
   id="svg1"
   inkscape:version="1.3.2 (091e20e, 2023-11-25)"
   sodipodi:docname="cloud_logo.svg"
   xmlns:inkscape="http://www.inkscape.org/namespaces/inkscape"
   xmlns:sodipodi="http://sodipodi.sourceforge.net/DTD/sodipodi-0.dtd"
   xmlns:xlink="http://www.w3.org/1999/xlink"
   xmlns="http://www.w3.org/2000/svg"
   xmlns:svg="http://www.w3.org/2000/svg">
  <sodipodi:namedview
     id="namedview1"
     pagecolor="#ffffff"
     bordercolor="#000000"
     borderopacity="0.25"
     inkscape:showpageshadow="2"
     inkscape:pageopacity="0.0"
     inkscape:pagecheckerboard="0"
     inkscape:deskcolor="#d1d1d1"
     inkscape:document-units="mm"
     inkscape:zoom="0.72693603"
     inkscape:cx="396.87124"
     inkscape:cy="451.20889"
     inkscape:window-width="925"
     inkscape:window-height="1016"
     inkscape:window-x="70"
     inkscape:window-y="27"
     inkscape:window-maximized="0"
     inkscape:current-layer="layer1" />
  <defs
     id="defs1">
    <linearGradient
       id="linearGradient4"
       inkscape:collect="always">
      <stop
         style="stop-color:#676767;stop-opacity:0.61135553;"
         offset="0"
         id="stop4" />
      <stop
         style="stop-color:#676767;stop-opacity:0;"
         offset="1"
         id="stop5" />
    </linearGradient>
    <rect
       x="5.5842007"
       y="595.2595"
       width="780.58992"
       height="105.22337"
       id="rect1" />
    <radialGradient
       inkscape:collect="always"
       xlink:href="#linearGradient4"
       id="radialGradient5"
       cx="113.22221"
       cy="74.358459"
       fx="113.22221"
       fy="74.358459"
       r="60.617104"
       gradientTransform="matrix(0.21916813,0,0,0.12961918,80.309519,104.35606)"
       gradientUnits="userSpaceOnUse" />
  </defs>
  <g
     inkscape:label="Layer 1"
     inkscape:groupmode="layer"
     id="layer1">
    <text
       xml:space="preserve"
       transform="scale(0.26458333)"
       id="text1"
       style="font-size:96px;white-space:pre;shape-inside:url(#rect1);display:inline;fill:#000000" />
    <path
       style="display:inline;fill:url(#radialGradient5);stroke-width:0.0554943"
       d="m 112.94278,121.85148 -18.767517,-0.0739 c 0,0 -4.27457,-6.51723 -1.260014,-6.42435 3.014557,0.0929 7.600551,1.86082 7.648821,0.80811 0.0483,-1.0527 2.23502,-3.21091 2.23502,-3.21091 0,0 -2.2212,-2.69972 -3.452198,-2.09095 -1.231,0.60876 12.636658,-7.4491 9.641588,-3.74422 -2.99506,3.70488 11.58303,4.91548 9.14466,7.36734 -2.43837,2.45187 -5.19036,7.36887 -5.19036,7.36887 z"
       id="path3" />
    <path
       style="fill:#0026ce;fill-opacity:1;stroke-width:0.0554943"
       d="m 95.43953,125.61185 c 0,0 1.170031,-5.70985 1.676062,-4.05894 0.506029,1.65091 0.805036,4.43438 0.805036,4.43438 0,0 -2.170183,3.69721 -2.565978,1.63269"
       id="path4" />
    <path
       style="fill:#0026ce;fill-opacity:1;stroke-width:0.0554943"
       d="m 111.25494,125.88462 c 0,0 1.17004,-5.70984 1.67607,-4.05894 0.50603,1.65091 0.80503,4.43439 0.80503,4.43439 0,0 -2.17018,3.6972 -2.56598,1.63268"
       id="path4-4" />
  </g>
</svg>
